<?xml version="1.0" encoding="UTF-8" standalone="no"?>
<!-- Created with Inkscape (http://www.inkscape.org/) -->

<svg
   xmlns:dc="http://purl.org/dc/elements/1.1/"
   xmlns:cc="http://creativecommons.org/ns#"
   xmlns:rdf="http://www.w3.org/1999/02/22-rdf-syntax-ns#"
   xmlns:svg="http://www.w3.org/2000/svg"
   xmlns="http://www.w3.org/2000/svg"
   xmlns:sodipodi="http://sodipodi.sourceforge.net/DTD/sodipodi-0.dtd"
   xmlns:inkscape="http://www.inkscape.org/namespaces/inkscape"
   version="1.1"
   width="48"
   height="48"
   id="svg2"
   inkscape:version="0.48.4 r9939"
   sodipodi:docname="distributor-logo.svg">
  <sodipodi:namedview
     pagecolor="#ffffff"
     bordercolor="#666666"
     borderopacity="1"
     objecttolerance="10"
     gridtolerance="10"
     guidetolerance="10"
     inkscape:pageopacity="0"
     inkscape:pageshadow="2"
     inkscape:window-width="1440"
     inkscape:window-height="845"
     id="namedview7"
     showgrid="false"
     inkscape:zoom="4.9166667"
     inkscape:cx="24"
     inkscape:cy="15.864407"
     inkscape:window-x="0"
     inkscape:window-y="30"
     inkscape:window-maximized="1"
     inkscape:current-layer="svg2" />
  <defs
     id="defs4">
    <clipPath
       clipPathUnits="userSpaceOnUse"
       id="clipPath52">
      <path
         inkscape:connector-curvature="0"
         d="m 0,1368 590,0 L 590,0 0,0 0,1368 z"
         id="path54" />
    </clipPath>
  </defs>
  <metadata
     id="metadata7">
    <rdf:RDF>
      <cc:Work
         rdf:about="">
        <dc:format>image/svg+xml</dc:format>
        <dc:type
           rdf:resource="http://purl.org/dc/dcmitype/StillImage" />
        <dc:title />
      </cc:Work>
    </rdf:RDF>
  </metadata>
  <g
     transform="matrix(0.27577191,0,0,-0.27577191,-59.959684,175.19026)"
     id="g48"
     style="fill:#000000">
    <g
       id="g50"
       clip-path="url(#clipPath52)"
       style="fill:#000000">
      <g
         id="g56"
         transform="translate(326.5586,555.2217)"
         style="fill:#000000">
        <path
           inkscape:connector-curvature="0"
           d="m 0,0 c 0,0 1.756,-4.165 5.848,-17.784 0,0 -2.264,5.264 -7.065,7.721 0,0 2.172,5.485 1.217,10.063 m 1.053,-66.68 c -11.489,-4.033 -20.857,-2.691 -25.342,-1.968 0.281,0.002 0.565,0.003 0.861,0.005 20.039,0.145 33.764,11.572 33.764,11.572 -34.112,-17.016 -50.357,8.589 -50.357,8.589 -0.479,-4.209 0.128,-8.251 1.152,-11.682 -5.815,7.351 -8.024,23.639 -4.571,28.976 1.241,-6.465 4.235,-8.705 4.235,-8.705 -2.108,6.968 4.244,20.35 4.244,20.35 0,0 2.959,-9.073 3.117,-7.18 1.215,14.667 12.974,17.156 12.974,17.156 0,0 -7.647,-10.807 -0.497,-14.3 0.874,-0.427 5.357,-2.859 6.334,-3.487 0.078,-1.246 -0.221,-2.428 -1.865,-1.784 0,0 1.025,-2.061 3.677,-3.112 2.651,-1.05 4.034,-2.529 2.483,-2.847 -1.551,-0.318 -0.217,-1.78 2.353,-2.989 2.572,-1.211 3.084,-6.303 1.504,-6.925 -1.578,-0.623 -2.308,-1.973 0.194,-2.019 0.929,-0.017 1.841,-0.086 2.626,-0.234 l 0.791,-1.189 c 0.545,-2.994 -0.566,-3.855 -3.068,-5.691 1.266,-0.444 2.895,-1.054 4.969,-0.613 5.324,1.658 8.82,4.93 8.82,4.93 0,0 -6.422,2.209 -6.976,3.647 0,0 -3.61,15.188 -5.913,18.326 -2.302,3.139 1.364,6.647 1.364,6.647 l 1.683,-4.928 2.022,2.122 2.779,-7.493 1.416,1.715 1.699,-1.389 0.149,-3.4 3.336,-0.154 c 0,0 0.859,-5.611 0.679,-6.773 0.616,0.712 3.245,3.022 3.245,3.022 l 1.017,-1.001 0.471,-9.451 c 0,0 4.728,8.489 8.094,10.334 3.363,1.842 2.007,7.049 2.007,7.049 l -4.72,1.668 -6.186,7.347 c -3.314,3.853 -5.359,7.948 -6.578,11.904 1.135,2.444 -0.455,6.755 -1.553,9.281 C 7.264,4.751 8.783,10.47 8.783,10.47 l 2.768,7.568 C 5.508,11.823 4.258,4.601 4.258,4.601 0.443,11.353 3.1,32.502 3.1,32.502 -1.119,26.275 -1.357,8.286 -1.357,8.286 c -8.325,10.622 -4.569,30.45 -4.569,30.45 -7.455,-11.056 -4.392,-25.774 -4.392,-25.774 -16.54,15.27 -13.77,42.091 -13.77,42.091 -10.36,-21.398 -0.697,-40.404 0.463,-42.207 -8.869,7.844 -28.996,9.569 -33.277,8.994 19.166,-5.238 26.84,-11.247 29.597,-14.864 C -34.144,4.197 -39.603,0.58 -44.868,-4.121 -51.619,-10.147 -54,-17.934 -54,-17.934 l -1.753,7.112 c -14.006,-11.905 -12.622,-33.271 -12.258,-39.258 -0.08,0.09 -0.159,0.182 -0.24,0.269 -1.109,6.639 -3.353,28.963 12.839,45.119 l 1.654,-2.39 c 0,0 6.568,7.991 20.971,14.046 0,0 -10.557,6.982 -27.75,6.265 0,0 9.271,-2.433 13.879,-5.606 -13.089,-2.377 -27.827,-10.676 -30.448,-14.182 2.576,0.459 5.8,0.932 8.679,1.226 0,0 -8.566,-8.471 -11.75,-21.691 -0.855,6.498 -7.324,56.593 39.95,64.77 0,0 3.563,0.075 1.517,1.226 -5.382,3.023 -12.869,4.054 -21.212,4.403 12.169,9.487 27.763,14.545 44.234,13.017 17.665,-1.636 32.973,-10.531 43.317,-23.497 -7.563,7.428 -20.178,13.56 -40.494,14.941 0,0 42.326,-4.36 54.213,-50.807 -3.397,5.575 -9.108,12.154 -18.373,16.236 0,0 -5.996,2.71 -6.133,1.182 0,0 2.441,-1.611 6.974,-10.37 0,0 21.563,-37.083 -3.853,-59.045 0,0 0.254,0.144 0.705,0.425 C 14.947,-59.731 8.303,-63.868 1.053,-66.68 m 37.926,44.862 -0.745,-5.94 c -0.088,-0.256 -0.171,-0.513 -0.261,-0.767 0.586,20.257 -13.795,37.428 -11.828,35.109 14.71,-17.357 12.834,-28.402 12.834,-28.402 m -53.834,87.37 c -39.628,3.674 -74.824,-25.935 -78.458,-66.003 -3.631,-40.07 25.652,-75.653 65.28,-79.326 39.627,-3.674 74.822,25.934 78.457,66.003 3.633,40.067 -25.651,75.652 -65.279,79.326"
           style="fill:#000000;fill-opacity:1;fill-rule:nonzero;stroke:none"
           id="path58" />
      </g>
      <g
         id="g60"
         transform="translate(305.1143,622.8408)"
         style="fill:#000000">
        <path
           inkscape:connector-curvature="0"
           d="m 0,0 c -40.755,0 -73.913,-33.523 -73.913,-74.732 0,-41.208 33.158,-74.733 73.913,-74.733 40.755,0 73.911,33.525 73.911,74.733 C 73.911,-33.523 40.755,0 0,0 m 0,-152.224 c -42.26,0 -76.641,34.762 -76.641,77.492 0,42.728 34.381,77.492 76.641,77.492 42.261,0 76.64,-34.764 76.64,-77.492 0,-42.73 -34.379,-77.492 -76.64,-77.492"
           style="fill:#000000;fill-opacity:1;fill-rule:nonzero;stroke:none"
           id="path62" />
      </g>
    </g>
  </g>
</svg>
